<svg width="47" height="47" fill="none" xmlns="http://www.w3.org/2000/svg"><path d="M24 0a23 23 0 1 0-.01 46 23 23 0 0 0 0-46Zm11.66 25.49c1.07 1.04 2.2 2.03 3.17 3.18.42.51.83 1.05 1.13 1.64.44.84.05 1.77-.71 1.82h-4.71a3.65 3.65 0 0 1-3-1.22c-.66-.67-1.26-1.38-1.9-2.06a4.39 4.39 0 0 0-.84-.75c-.64-.42-1.2-.3-1.57.38a4.93 4.93 0 0 0-.5 2.2c-.04 1.1-.38 1.4-1.5 1.45-2.38.11-4.64-.24-6.74-1.45a14.89 14.89 0 0 1-4.53-4.25A57.21 57.21 0 0 1 7.98 15.8c-.37-.84-.1-1.29.83-1.3 1.53-.04 3.07-.03 4.61 0 .63 0 1.04.36 1.28.95a28.5 28.5 0 0 0 3.13 5.8c.34.48.68.95 1.18 1.3.54.37.96.24 1.21-.37.17-.39.24-.8.27-1.21.13-1.43.14-2.85-.07-4.26-.13-.89-.63-1.47-1.51-1.63-.45-.09-.39-.25-.17-.5.39-.45.74-.73 1.45-.73h5.32c.84.16 1.03.54 1.15 1.39v5.91c-.01.33.17 1.3.75 1.52.47.15.78-.23 1.07-.52a18.59 18.59 0 0 0 3-4.6c.35-.74.67-1.5.97-2.25.22-.56.57-.83 1.2-.82h5.13c.15 0 .3 0 .45.03.87.14 1.1.52.83 1.36-.42 1.33-1.23 2.43-2.03 3.53-.86 1.19-1.77 2.33-2.62 3.52-.78 1.08-.72 1.64.25 2.58Z" fill="#fff"/></svg>