<svg xmlns="http://www.w3.org/2000/svg">
<symbol viewBox="0 0 46 46" id="icon-f">
<path d="M23 0C10.3 0 0 10.31 0 23c0 12.68 10.31 23 23 23 12.68 0 23-10.32 23-23C46 10.3 35.68 0 23 0Zm5.72 23.8h-3.74v13.34h-5.55V23.8H16.8v-4.7h2.63v-3.06c0-2.18 1.04-5.59 5.6-5.59l4.1.01v4.58h-2.97c-.48 0-1.17.25-1.17 1.29v2.77h4.22l-.5 4.7Z" fill="#fff"/>
</symbol>
<symbol viewBox="0 0 46 46" id="icon-instagram">
<path d="M21.29 3.2a4.09 4.09 0 0 0-.99-1.51A4.1 4.1 0 0 0 18.78.7a7.3 7.3 0 0 0-2.45-.45A91.3 91.3 0 0 0 11 .17c-3.53 0-3.95.01-5.34.08A7.32 7.32 0 0 0 3.2.7c-.58.21-1.1.55-1.52.99A4.1 4.1 0 0 0 .7 3.21a7.3 7.3 0 0 0-.45 2.45A91.3 91.3 0 0 0 .17 11c0 3.52.01 3.94.08 5.33A7.3 7.3 0 0 0 .7 18.8c.21.57.55 1.09.99 1.51.42.44.94.78 1.52 1 .46.17 1.16.39 2.45.45 1.4.06 1.8.07 5.34.07 3.52 0 3.94 0 5.33-.07a7.31 7.31 0 0 0 2.46-.46 4.38 4.38 0 0 0 2.5-2.5c.18-.47.4-1.17.46-2.46.06-1.39.07-1.8.07-5.33 0-3.53-.01-3.95-.07-5.34a7.32 7.32 0 0 0-.46-2.45Zm-10.3 14.58a6.78 6.78 0 1 1 0-13.56 6.78 6.78 0 0 1 0 13.56Zm7.06-12.25a1.59 1.59 0 1 1 0-3.17 1.59 1.59 0 0 1 0 3.17Z" fill="#fff"/>
</symbol>
<symbol viewBox="0 0 46 46" id="icon-vk">
<path d="M24 0a23 23 0 1 0-.01 46 23 23 0 0 0 0-46Zm11.66 25.49c1.07 1.04 2.2 2.03 3.17 3.18.42.51.83 1.05 1.13 1.64.44.84.05 1.77-.71 1.82h-4.71a3.65 3.65 0 0 1-3-1.22c-.66-.67-1.26-1.38-1.9-2.06a4.39 4.39 0 0 0-.84-.75c-.64-.42-1.2-.3-1.57.38a4.93 4.93 0 0 0-.5 2.2c-.04 1.1-.38 1.4-1.5 1.45-2.38.11-4.64-.24-6.74-1.45a14.89 14.89 0 0 1-4.53-4.25A57.21 57.21 0 0 1 7.98 15.8c-.37-.84-.1-1.29.83-1.3 1.53-.04 3.07-.03 4.61 0 .63 0 1.04.36 1.28.95a28.5 28.5 0 0 0 3.13 5.8c.34.48.68.95 1.18 1.3.54.37.96.24 1.21-.37.17-.39.24-.8.27-1.21.13-1.43.14-2.85-.07-4.26-.13-.89-.63-1.47-1.51-1.63-.45-.09-.39-.25-.17-.5.39-.45.74-.73 1.45-.73h5.32c.84.16 1.03.54 1.15 1.39v5.91c-.01.33.17 1.3.75 1.52.47.15.78-.23 1.07-.52a18.59 18.59 0 0 0 3-4.6c.35-.74.67-1.5.97-2.25.22-.56.57-.83 1.2-.82h5.13c.15 0 .3 0 .45.03.87.14 1.1.52.83 1.36-.42 1.33-1.23 2.43-2.03 3.53-.86 1.19-1.77 2.33-2.62 3.52-.78 1.08-.72 1.64.25 2.58Z" fill="#fff"/>
</symbol>
<symbol viewBox="0 0 50 50" id="icon-button">
<path d="M12.08 24.92 27 39.84l14.92-14.92" stroke="#fff" stroke-width="3" stroke-linecap="round" stroke-linejoin="round"/><path d="M1.92 25.92 27 51l25.08-25.08" stroke="#fff" stroke-width="3" stroke-linecap="round" stroke-linejoin="round"/>
</symbol>
</svg>
