<svg width="22" height="22" fill="none" xmlns="http://www.w3.org/2000/svg"><path d="M21.29 3.2a4.09 4.09 0 0 0-.99-1.51A4.1 4.1 0 0 0 18.78.7a7.3 7.3 0 0 0-2.45-.45A91.3 91.3 0 0 0 11 .17c-3.53 0-3.95.01-5.34.08A7.32 7.32 0 0 0 3.2.7c-.58.21-1.1.55-1.52.99A4.1 4.1 0 0 0 .7 3.21a7.3 7.3 0 0 0-.45 2.45A91.3 91.3 0 0 0 .17 11c0 3.52.01 3.94.08 5.33A7.3 7.3 0 0 0 .7 18.8c.21.57.55 1.09.99 1.51.42.44.94.78 1.52 1 .46.17 1.16.39 2.45.45 1.4.06 1.8.07 5.34.07 3.52 0 3.94 0 5.33-.07a7.31 7.31 0 0 0 2.46-.46 4.38 4.38 0 0 0 2.5-2.5c.18-.47.4-1.17.46-2.46.06-1.39.07-1.8.07-5.33 0-3.53-.01-3.95-.07-5.34a7.32 7.32 0 0 0-.46-2.45Zm-10.3 14.58a6.78 6.78 0 1 1 0-13.56 6.78 6.78 0 0 1 0 13.56Zm7.06-12.25a1.59 1.59 0 1 1 0-3.17 1.59 1.59 0 0 1 0 3.17Z" fill="currentColor"/></svg>
